; OM File Header - Saved 2022/11/06 15:07:30
; (7.02 :patc (om-make-point 40 37) (om-make-point 15 52) (om-make-point 826 672) "non documentation" 183 0 nil "2022/11/06 15:07:30")
; End File Header
(in-package :om)(load-lib-for (quote ("OMLempelText")))(setf *om-current-persistent* (om-load-patch1 "LzTextExample" (quote ((let ((box (om-load-boxcall (quote bastype) "aux 4" (quote t) (quote nil) (om-make-point 83 17) (om-make-point 54 28) "value" "\"value\"" nil))) (when (fboundp (quote set-active)) (set-active box nil)) box) (let ((box (om-load-boxcall (quote bastype) "aux 4" (quote t) (quote nil) (om-make-point 235 29) (om-make-point 54 28) "value" "\"value\"" nil))) (when (fboundp (quote set-active)) (set-active box nil)) box) (let ((box (om-load-editor-box1 "TEXTFILE 2" (quote textfile) (quote ((om-load-inputfun (quote input-funbox) "object" "self" nil) (om-load-inputfun (quote input-funbox) "input data or text" "exp-list" nil) (om-load-inputfunmenu1 (quote input-funmenu) "append or supersede" "ed-mode" "supersede" (list (list "append" "append") (list "supersede" "supersede"))) (om-load-inputfunmenu1 (quote input-funmenu) "eval interpretation mode" "eval-mode" "value" (list (list "  text" "text") (list "  data list" "data") (list "  list" "list") (list "> value" "value"))))) (om-make-point 64 72) (om-make-point 70 50) (load-buffer-textfile (quote ("\" In the bright season when He, most high Jove," "  From welkin reaching down his glorying hand," "  Decks the Great Mother and her changing face," "  Clothing her not with scarlet skeins and gold" "  But with th' empurpling flowers and gay grass," "  When the young year renewed, renews the sun," "" "  When, then, I see a lady like the sun," "  One fashioned by th' high hand of utmost Jove," "  So fair beneath the myrtles on gay grass" "  Who holdeth Love and Truth, one by each hand," "  It seems, if I look straight, two bands of gold" "  Do make more fair her delicate fair face." "" "  Though eyes are dazzled, looking on her face" "  As all sight faileth that looks toward the sun," "  New metamorphoses, to rained gold," "  Or bulls or whitest swans, might fall on Jove" "  Through her, or Phoebus, his bag-pipes in hand," "  Might, mid the droves, come barefoot o'er our grass," "" "  Alas, that there was hidden in the grass" "  A cruel shaft, the which, to wound my face," "  My Lady took in her own proper hand." "  If I could not defend me 'gainst that sun" "  I take no shame, for even utmost Jove" "  Is in high heaven pierced with darts of gold." "" "  Behold the green shall find itself turned gold" "  And spring shall be without her flowers and grass," "  And hell's deep be the dwelling place of Jove" "  Ere I shall have uncarved her holy face" "  From my heart's midst, where 'tis both Sun and sun" "  And yet she beareth me such hostile hand!" "" "  O sweet and holy and O most light hand," "  O intermingled ivory and gold," "  O mortal goddess and terrestrial sun" "  Who comest not to foster meadow grass," "  But to show heaven by a likened face" "  Wert sent amongst us by th' exalted Jove," "" "  I still pray Jove that he permit no grass" "  To cover o'er thy hands, thy face, thy gold" "  For heaven's sufficed with a single sun." "\"")) (quote textfile) "supersede" "value") "x" nil (pairlis (quote (winpos winsize)) (list (om-make-point 10 40) (om-make-point 335 275))) nil nil nil nil))) (when (fboundp (quote set-active)) (set-active box nil)) box) (let ((box (om-load-editor-box1 "TEXTFILE 2" (quote textfile) (quote ((om-load-inputfun (quote input-funbox) "object" "self" nil) (om-load-inputfun (quote input-funbox) "input data or text" "exp-list" nil) (om-load-inputfunmenu1 (quote input-funmenu) "append or supersede" "ed-mode" "supersede" (list (list "append" "append") (list "supersede" "supersede"))) (om-load-inputfunmenu1 (quote input-funmenu) "eval interpretation mode" "eval-mode" "value" (list (list "  text" "text") (list "  data list" "data") (list "  list" "list") (list "> value" "value"))))) (om-make-point 208 63) (om-make-point 70 50) (load-buffer-textfile (quote ("\"Human reason, in one sphere of its cognition, is called upon to" "consider questions, which it cannot decline, as they are presented by" "its own nature, but which it cannot answer, as they transcend every" "faculty of the mind." "" "It falls into this difficulty without any fault of its own. It begins" "with principles, which cannot be dispensed with in the field of" "experience, and the truth and sufficiency of which are, at the same" "time, insured by experience. With these principles it rises, in" "obedience to the laws of its own nature, to ever higher and more remote" "conditions. But it quickly discovers that, in this way, its labours" "must remain ever incomplete, because new questions never cease to" "present themselves; and thus it finds itself compelled to have recourse" "to principles which transcend the region of experience, while they are" "regarded by common sense without distrust. It thus falls into confusion" "and contradictions, from which it conjectures the presence of latent" "errors, which, however, it is unable to discover, because the" "principles it employs, transcending the limits of experience, cannot be" "tested by that criterion. The arena of these endless contests is called" "Metaphysic" "" "Time was, when she was the _queen_ of all the sciences; and, if we take" "the will for the deed, she certainly deserves, so far as regards the" "high importance of her object-matter, this title of honour. Now, it is" "the fashion of the time to heap contempt and scorn upon her; and the" "matron mourns, forlorn and forsaken, like Hecuba:" "" "Modo maxima rerum," "Tot generis, natisque potens..." "Nunc trahor exul, inops." "<2014>Ovid, Metamorphoses. xiii" "" "" "At first, her government, under the administration of the _dogmatists_," "was an absolute _despotism_. But, as the legislative continued to show" "traces of the ancient barbaric rule, her empire gradually broke up, and" "intestine wars introduced the reign of _anarchy;_ while the _sceptics_," "like nomadic tribes, who hate a permanent habitation and settled mode" "of living, attacked from time to time those who had organized" "themselves into civil communities. But their number was, very happily," "small; and thus they could not entirely put a stop to the exertions of" "those who persisted in raising new edifices, although on no settled or" "uniform plan. In recent times the hope dawned upon us of seeing those" "disputes settled, and the legitimacy of her claims established by a" "kind of _physiology_ of the human understanding<2014>that of the celebrated" "Locke. But it was found that<2014>although it was affirmed that this" "so-called queen could not refer her descent to any higher source than" "that of common experience, a circumstance which necessarily brought" "suspicion on her claims<2014>as this _genealogy_ was incorrect, she" "persisted in the advancement of her claims to sovereignty. Thus" "metaphysics necessarily fell back into the antiquated and rotten" "constitution of _dogmatism_, and again became obnoxious to the contempt" "from which efforts had been made to save it. At present, as all" "methods, according to the general persuasion, have been tried in vain," "there reigns nought but weariness and complete _indifferentism_<2014>the" "mother of chaos and night in the scientific world, but at the same time" "the source of, or at least the prelude to, the re-creation and" "reinstallation of a science, when it has fallen into confusion," "obscurity, and disuse from ill directed effort." "" "For it is in reality vain to profess _indifference_ in regard to such" "inquiries, the object of which cannot be indifferent to humanity." "Besides, these pretended _indifferentists_, however much they may try" "to disguise themselves by the assumption of a popular style and by" "changes on the language of the schools, unavoidably fall into" "metaphysical declarations and propositions, which they profess to" "regard with so much contempt. At the same time, this indifference," "which has arisen in the world of science, and which relates to that" "kind of knowledge which we should wish to see destroyed the last, is a" "phenomenon that well deserves our attention and reflection. It is" "plainly not the effect of the levity, but of the matured _judgement_[1]" "of the age, which refuses to be any longer entertained with illusory" "knowledge, It is, in fact, a call to reason, again to undertake the" "most laborious of all tasks<2014>that of self-examination, and to establish" "a tribunal, which may secure it in its well-grounded claims, while it" "pronounces against all baseless assumptions and pretensions, not in an" "arbitrary manner, but according to its own eternal and unchangeable" "laws. This tribunal is nothing less than the _Critical Investigation of" "Pure Reason_." "" " [1] We very often hear complaints of the shallowness of the present" " age, and of the decay of profound science. But I do not think that" " those which rest upon a secure foundation, such as mathematics," " physical science, etc., in the least deserve this reproach, but that" " they rather maintain their ancient fame, and in the latter case," " indeed, far surpass it. The same would be the case with the other" " kinds of cognition, if their principles were but firmly established." " In the absence of this security, indifference, doubt, and finally," " severe criticism are rather signs of a profound habit of thought. Our" " age is the age of criticism, to which everything must be subjected." " The sacredness of religion, and the authority of legislation, are by" " many regarded as grounds of exemption from the examination of this" " tribunal. But, if they are exempted, they become the subjects of just" " suspicion, and cannot lay claim to sincere respect, which reason" " accords only to that which has stood the test of a free and public" " examination." "" "" "I do not mean by this a criticism of books and systems, but a critical" "inquiry into the faculty of reason, with reference to the cognitions to" "which it strives to attain _without the aid of experience;_ in other" "words, the solution of the question regarding the possibility or" "impossibility of metaphysics, and the determination of the origin, as" "well as of the extent and limits of this science. All this must be done" "on the basis of principles." "" "This path<2014>the only one now remaining<2014>has been entered upon by me; and I" "flatter myself that I have, in this way, discovered the cause of<2014>and" "consequently the mode of removing<2014>all the errors which have hitherto" "set reason at variance with itself, in the sphere of non-empirical" "thought. I have not returned an evasive answer to the questions of" "reason, by alleging the inability and limitation of the faculties of" "the mind; I have, on the contrary, examined them completely in the" "light of principles, and, after having discovered the cause of the" "doubts and contradictions into which reason fell, have solved them to" "its perfect satisfaction. It is true, these questions have not been" "solved as dogmatism, in its vain fancies and desires, had expected; for" "it can only be satisfied by the exercise of magical arts, and of these" "I have no knowledge. But neither do these come within the compass of" "our mental powers; and it was the duty of philosophy to destroy the" "illusions which had their origin in misconceptions, whatever darling" "hopes and valued expectations may be ruined by its explanations. My" "chief aim in this work has been thoroughness; and I make bold to say" "that there is not a single metaphysical problem that does not find its" "solution, or at least the key to its solution, here. Pure reason is a" "perfect unity; and therefore, if the principle presented by it prove to" "be insufficient for the solution of even a single one of those" "questions to which the very nature of reason gives birth, we must" "reject it, as we could not be perfectly certain of its sufficiency in" "the case of the others." "" "While I say this, I think I see upon the countenance of the reader" "signs of dissatisfaction mingled with contempt, when he hears" "declarations which sound so boastful and extravagant; and yet they are" "beyond comparison more moderate than those advanced by the commonest" "author of the commonest philosophical programme, in which the dogmatist" "professes to demonstrate the simple nature of the soul, or the" "necessity of a primal being. Such a dogmatist promises to extend human" "knowledge beyond the limits of possible experience; while I humbly" "confess that this is completely beyond my power. Instead of any such" "attempt, I confine myself to the examination of reason alone and its" "pure thought; and I do not need to seek far for the sum-total of its" "cognition, because it has its seat in my own mind. Besides, common" "logic presents me with a complete and systematic catalogue of all the" "simple operations of reason; and it is my task to answer the question" "how far reason can go, without the material presented and the aid" "furnished by experience." "" "So much for the completeness and thoroughness necessary in the" "execution of the present task. The aims set before us are not" "arbitrarily proposed, but are imposed upon us by the nature of" "cognition itself." "" "The above remarks relate to the _matter_ of our critical inquiry. As" "regards the _form_, there are two indispensable conditions, which any" "one who undertakes so difficult a task as that of a critique of pure" "reason, is bound to fulfil. These conditions are _certitude_ and" " clearness.\"")) (quote textfile) "supersede" "value") "x" nil (pairlis (quote (winpos winsize)) (list (om-make-point 10 40) (om-make-point 335 275))) nil nil nil nil))) (when (fboundp (quote set-active)) (set-active box nil)) box) (let ((box (om-load-boxcall (quote genfun) "STRING->ASCII1" (quote string->ascii) (quote ((om-load-inputfun (quote input-funbox) "A Textfile" "TEXT" (quote toto)))) (om-make-point 202 107) nil nil nil nil 1))) (when (fboundp (quote set-active)) (set-active box nil)) box) (let ((box (om-load-boxcall (quote genfun) "STRING->ASCII1" (quote string->ascii) (quote ((om-load-inputfun (quote input-funbox) "A Textfile" "TEXT" (quote toto)))) (om-make-point 57 136) nil nil nil nil 1))) (when (fboundp (quote set-active)) (set-active box nil)) box) (let ((box (om-load-boxcomment "comment" (om-make-point 176 60) (quote "maxpast = longueur du contexte. $petit = destructuré") "" (om-make-point 5 540) nil (om-make-color 0 0 0) (om-make-font "Geneva" 10 :family "Geneva" :style (quote (:plain)) :mode (quote nil))))) (when (fboundp (quote set-active)) (set-active box nil)) box) (let ((box (om-load-boxcomment "comment" (om-make-point 112 28) (quote "Generation simple") "" (om-make-point 101 466) nil (om-make-color 0 0 0) (om-make-font "Geneva" 10 :family "Geneva" :style (quote (:plain)) :mode (quote nil))))) (when (fboundp (quote set-active)) (set-active box nil)) box) (let ((box (om-load-boxcall (quote bastype) "aux11" (quote t) (quote nil) (om-make-point 47 343) (om-make-point 28 30) 20 "20" nil))) (when (fboundp (quote set-active)) (set-active box nil)) box) (let ((box (om-load-boxcall (quote genfun) "LZTEXTGENERATE" (quote lztextgenerate) (quote ((om-load-inputfun (quote input-funbox) "A LZDictionary" "DICT" nil) (om-load-inputfun (quote input-funbox) "An integer" "MAXPAST" 5) (om-load-inputfun (quote input-funbox) "An integer" "MAXLENGTH" 50) (om-load-inputfun (quote input-funbox) "T or Nil" "MOSTPROBABLE" (quote t)))) (om-make-point 25 392) nil nil nil nil 1))) (when (fboundp (quote set-active)) (set-active box nil)) box) (let ((box (om-load-boxcall (quote genfun) "ASCII->STRING1" (quote ascii->string) (quote ((om-load-inputfun (quote input-funbox) "ascii numbers" "ASCIILIST" 112))) (om-make-point 28 454) nil nil nil nil 1))) (when (fboundp (quote set-active)) (set-active box nil)) box) (let ((box (om-load-boxcall (quote bastype) "aux21" (quote t) (quote nil) (om-make-point 76 360) (om-make-point 42 30) 2000 "2000" nil))) (when (fboundp (quote set-active)) (set-active box nil)) box) (let ((box (om-load-boxcomment "comment" (om-make-point 287 48) (quote "<- 2 - évaluer (touche v) pour générer un texte$On visualise le résultat dans le 'listener'") "" (om-make-point 393 531) nil (om-make-color 0 0 0) (om-make-font "Geneva" 12 :family "Geneva" :style (quote (:plain)) :mode (quote nil))))) (when (fboundp (quote set-active)) (set-active box nil)) box) (let ((box (om-load-boxcomment "comment" (om-make-point 323 99) (quote "<- 1 - sélectionner (clicker dessus), ouvrir (touche b), évaluer (touche v) puis fermer (touche b) (faire cette opération à chaque chargement de l'application openmusic ou bien lorsqu'on change les textes utilisés)") "" (om-make-point 330 198) nil (om-make-color 0 0 0) (om-make-font "Geneva" 12 :family "Geneva" :style (quote (:plain)) :mode (quote nil))))) (when (fboundp (quote set-active)) (set-active box nil)) box) (let ((box (om-load-boxcomment "comment" (om-make-point 43 23) (quote "texte2") "" (om-make-point 156 76) nil (om-make-color 0 0 0) (om-make-font "Geneva" 10 :family "Geneva" :style (quote (:plain)) :mode (quote nil))))) (when (fboundp (quote set-active)) (set-active box nil)) box) (let ((box (om-load-boxcomment "comment" (om-make-point 43 23) (quote "texte1") "" (om-make-point 13 87) nil (om-make-color 0 0 0) (om-make-font "Geneva" 10 :family "Geneva" :style (quote (:plain)) :mode (quote nil))))) (when (fboundp (quote set-active)) (set-active box nil)) box) (let ((box (om-load-boxcomment "comment" (om-make-point 257 31) (quote "<- 2000 = nombre de mots du texte généré") "" (om-make-point 354 457) nil (om-make-color 0 0 0) (om-make-font "Geneva" 10 :family "Geneva" :style (quote (:plain)) :mode (quote nil))))) (when (fboundp (quote set-active)) (set-active box nil)) box) (let ((box (om-load-boxcomment "comment" (om-make-point 268 47) (quote "<- graphe représentant le rapport de proportion (de 0 à 100) entre les mots du texte1 et ceux du texte2") "" (om-make-point 398 392) nil (om-make-color 0 0 0) (om-make-font "Geneva" 10 :family "Geneva" :style (quote (:plain)) :mode (quote nil))))) (when (fboundp (quote set-active)) (set-active box nil)) box) (let ((box (om-load-boxcomment "comment" (om-make-point 265 43) (quote "<- graphe représentant l'évolution du taux de déconstruction (de 0 à 100) dans le texte généré") "" (om-make-point 351 304) nil (om-make-color 0 0 0) (om-make-font "Geneva" 10 :family "Geneva" :style (quote (:plain)) :mode (quote nil))))) (when (fboundp (quote set-active)) (set-active box nil)) box) (let ((box (om-load-boxcomment "comment" (om-make-point 267 43) (quote "<- double-cliquer sur chaque éditeur de texte. Rentrer les textes avec des \" au début et à la fin") "" (om-make-point 284 67) nil (om-make-color 0 0 0) (om-make-font "Geneva" 10 :family "Geneva" :style (quote (:plain)) :mode (quote nil))))) (when (fboundp (quote set-active)) (set-active box nil)) box) (let ((box (om-load-boxcall (quote lispfun) "LZTEXTCROSSGENERATE" (quote lztextcrossgenerate) (quote ((om-load-inputfun (quote input-funbox) "LDICT" "LDICT" nil) (om-load-inputfun (quote input-funbox) "MAXPAST" "MAXPAST" nil) (om-load-inputfun (quote input-funbox) "MAXLENGTH" "MAXLENGTH" nil) (om-load-inputfun (quote input-funbox) "MOSTPROBABLE" "MOSTPROBABLE" (quote t)) (om-load-inputfun (quote input-funbox) "TAUX-CHGT" "TAUX-CHGT" nil) (om-load-inputfun (quote input-funbox) "add-input" "add-input" nil))) (om-make-point 252 505) nil nil nil nil 1))) (when (fboundp (quote set-active)) (set-active box nil)) box) (let ((box (om-load-editor-box1 "BPF" (quote bpf) (quote ((om-load-inputfun (quote input-funbox) "objs" "SELF" nil) (om-load-inputfun (quote input-funbox) "no documentation" "X-POINTS" (list 0 10)) (om-load-inputfun (quote input-funbox) "no documentation" "Y-POINTS" (list 0 100)) (om-load-inputfun (quote input-funbox) "no documentation" "DECIMALS" 0))) (om-make-point 346 384) (om-make-point 40 70) (let ((newobj (when (find-class (quote bpf) nil) (let ((newbpf (simple-bpf-from-list (quote (0 60 84 109)) (quote (0 5 30 99)) (quote bpf) 0))) (setf (bpfcolor newbpf) (om-make-color 0 0 0)) (set-name newbpf "BPF") newbpf)))) (when newobj) newobj) "x" nil (pairlis (quote (show-stems winpos winsize mode grillestep notechancolor? cmnpref obj-mode palette-mode zoom inport outport deltapict picture)) (list (quote t) (om-make-point 10 40) (om-make-point 335 275) 0 1000 nil (let ((newobj (make-instance (quote edition-values)))) (setf (paper-size newobj) (om-make-point 600 800)) (setf (top-margin newobj) 2) (setf (left-margin newobj) 1) (setf (right-margin newobj) 1) (setf (bottom-margin newobj) 1) (setf (orientation newobj) nil) (setf (scale newobj) nil) (setf (system-space newobj) (quote (1))) (setf (system-color newobj) (quote nil)) (setf (line-space newobj) 1) (setf (title newobj) nil) (setf (show-title? newobj) nil) (setf (show-page? newobj) nil) (setf (sheet-id newobj) nil) (setf (page-mode newobj) nil) newobj) 0 0 1 0 0 (om-make-point 0 0) nil)) t nil nil nil))) (when (fboundp (quote set-active)) (set-active box nil)) box) (let ((box (om-load-editor-box1 "BPF" (quote bpf) (quote ((om-load-inputfun (quote input-funbox) "objs" "SELF" nil) (om-load-inputfun (quote input-funbox) "no documentation" "X-POINTS" (list 0 10)) (om-load-inputfun (quote input-funbox) "no documentation" "Y-POINTS" (list 0 100)) (om-load-inputfun (quote input-funbox) "no documentation" "DECIMALS" 0))) (om-make-point 275 311) (om-make-point 65 86) (let ((newobj (when (find-class (quote bpf) nil) (let ((newbpf (simple-bpf-from-list (quote (0 8 37 77 103)) (quote (1 5 6 7 12)) (quote bpf) 0))) (setf (bpfcolor newbpf) (om-make-color 0 0 0)) (set-name newbpf "BPF") newbpf)))) (when newobj) newobj) "x" nil (pairlis (quote (show-stems winpos winsize mode grillestep notechancolor? cmnpref obj-mode palette-mode zoom inport outport deltapict picture)) (list (quote t) (om-make-point 10 40) (om-make-point 335 275) 0 1000 nil (let ((newobj (make-instance (quote edition-values)))) (setf (paper-size newobj) (om-make-point 600 800)) (setf (top-margin newobj) 2) (setf (left-margin newobj) 1) (setf (right-margin newobj) 1) (setf (bottom-margin newobj) 1) (setf (orientation newobj) nil) (setf (scale newobj) nil) (setf (system-space newobj) (quote (1))) (setf (system-color newobj) (quote nil)) (setf (line-space newobj) 1) (setf (title newobj) nil) (setf (show-title? newobj) nil) (setf (show-page? newobj) nil) (setf (sheet-id newobj) nil) (setf (page-mode newobj) nil) newobj) 0 0 1 0 0 (om-make-point 0 0) nil)) t nil nil nil))) (when (fboundp (quote set-active)) (set-active box nil)) box) (let ((box (om-load-boxcall (quote bastype) "aux4" (quote t) (quote nil) (om-make-point 349 354) (om-make-point 39 21) (list 100) "(100)" nil))) (when (fboundp (quote set-active)) (set-active box nil)) box) (let ((box (om-load-boxcomment "comment" (om-make-point 235 40) (quote "<- nombre de lectures du texte pour l'élaboration du dictionnaire (de 10 à 40)") "" (om-make-point 300 149) nil (om-make-color 0 0 0) (om-make-font "Geneva" 10 :family "Geneva" :style (quote (:plain)) :mode (quote nil))))) (when (fboundp (quote set-active)) (set-active box nil)) box) (let ((box (om-load-boxcall (quote lispfun) "LIST1" (quote list) (quote ((om-load-inputfun (quote input-funbox) "add-input" "add-input" nil) (om-load-inputfun (quote input-funbox) "add-input" "add-input" nil))) (om-make-point 168 268) nil nil nil nil 1))) (when (fboundp (quote set-active)) (set-active box nil)) box) (let ((box (om-load-boxcall (quote genfun) "ASCII->STRING" (quote ascii->string) (quote ((om-load-inputfun (quote input-funbox) "ascii numbers" "ASCIILIST" 112))) (om-make-point 270 551) nil nil nil nil 1))) (when (fboundp (quote set-active)) (set-active box nil)) box) (let ((box (om-load-boxcall (quote genfun) "LZTEXTIFY" (quote lztextify) (quote ((om-load-inputfun (quote input-funbox) "A list of anything" "TEXT" (list (quote a) (quote b) (quote c))) (om-load-inputfun (quote input-funbox) "An integer" "NITER" 1))) (om-make-point 215 199) nil (list nil) "x" nil 1))) (when (fboundp (quote set-active)) (set-active box nil)) box) (let ((box (om-load-boxcall (quote bastype) "aux" (quote t) (quote nil) (om-make-point 268 161) (om-make-point 28 30) 35 "35" nil))) (when (fboundp (quote set-active)) (set-active box nil)) box) (let ((box (om-load-boxcall (quote genfun) "LZTEXTIFY" (quote lztextify) (quote ((om-load-inputfun (quote input-funbox) "A list of anything" "TEXT" (list (quote a) (quote b) (quote c))) (om-load-inputfun (quote input-funbox) "An integer" "NITER" 1))) (om-make-point 88 209) nil (list nil) "x" nil 1))) (when (fboundp (quote set-active)) (set-active box nil)) box) (let ((box (om-load-boxcall (quote bastype) "aux2" (quote t) (quote nil) (om-make-point 289 459) (om-make-point 42 30) 2000 "2000" nil))) (when (fboundp (quote set-active)) (set-active box nil)) box) (let ((box (om-load-boxcall (quote bastype) "aux" (quote t) (quote nil) (om-make-point 153 174) (om-make-point 28 30) 35 "35" nil))) (when (fboundp (quote set-active)) (set-active box nil)) box))) (quote ((0 0 2 3 nil 0) (1 0 3 3 nil 0) (3 1 4 0 nil 0) (2 1 5 0 nil 0) (29 0 9 0 nil 0) (8 0 9 1 nil 0) (11 0 9 2 nil 0) (9 0 10 0 nil 0) (25 0 20 0 nil 0) (22 0 20 1 nil 0) (30 0 20 2 nil 0) (21 0 20 4 nil 0) (29 0 25 0 nil 0) (27 0 25 1 nil 0) (20 0 26 0 nil 0) (4 0 27 0 nil 0) (28 0 27 1 nil 0) (5 0 29 0 nil 0) (31 0 29 1 nil 0))) nil 7.02))